<svg
    class="pt-10"
    width="44"
    height="38"
    viewBox="0 0 44 38"
    fill="none"
    xmlns="http://www.w3.org/2000/svg">
    <g opacity="0.3">
        <ellipse
            cx="21.087"
            cy="16.9598"
            rx="16.087"
            ry="16.0908"
            fill="#b6c1d1"
        />
        <ellipse
            cx="2.41304"
            cy="3.28263"
            rx="2.41304"
            ry="2.41361"
            fill="#b6c1d1"
        />
    </g>
    <path
        transform="translate(10,5), scale(1.5, 1.5)"
        stroke="#6e84a3"
        stroke-linecap="round"
        stroke-linejoin="round"
        stroke-width="1.5"
        d="M7.6 8.5h8m-8 3.5H12m7.1-7H5c-.2 0-.5 0-.6.3-.2.1-.3.3-.3.6V15c0 .3 0 .5.3.6.1.2.4.3.6.3h4l3 4 3-4h4.1c.2 0 .5 0 .6-.3.2-.1.3-.3.3-.6V6c0-.3 0-.5-.3-.6a.9.9 0 0 0-.6-.3Z"
    />
</svg>