<svg width="124" height="120" viewBox="0 0 624 120" fill="none" xmlns="http://www.w3.org/2000/svg">
    <path
        d="M0 1.55801H41.7058C67.2389 1.55801 83.7514 8.53591 83.7514 31.3467C83.7514 45.4765 72.6878 53.4779 62.6436 56.7141V57.3936C75.7541 59.7762 88.1809 68.797 88.1809 83.9503C88.1809 108.46 68.6022 119.014 43.0691 119.014H0V1.55801ZM42.2155 48.7127C51.5801 48.7127 57.7086 44.797 57.7086 35.0925C57.7086 25.5622 51.2403 23.1754 43.0691 23.1754H27.0663V48.7127H42.2155ZM43.9226 97.3964C53.6271 97.3964 61.1146 94.4959 61.1146 82.7569C61.1146 70.6699 53.4572 67.7776 44.2624 67.7776H27.0663V97.3964H43.9226ZM99.4144 1.55801H126.481V119.014H99.4144V1.55801ZM145.715 1.55801H159.845V119.014H145.715V1.55801ZM179.08 1.55801H195.907C206.967 1.55801 213.903 5.6105 213.903 14.8177C213.903 22.1395 209.229 25.645 204.398 26.8923V27.203C210.24 28.3715 216.24 32.6602 216.24 39.9033C216.24 51.1202 206.345 55.3301 196.686 55.3301H179.08V1.55801ZM195.655 24.3066C201.265 24.3066 205.55 21.6588 205.55 15.9696C205.55 10.5829 201.576 8.41575 196.28 8.41575H187.57V24.3066H195.655ZM197.059 48.4558C202.823 48.4558 207.729 45.261 207.729 39.6547C207.729 33.1865 201.576 30.7707 196.127 30.7707H187.57V48.4558H197.059ZM223.873 5.14226C223.935 2.29558 226.247 0.0165746 229.094 0C231.895 0.058011 234.141 2.34116 234.157 5.14226C234.141 7.94337 231.895 10.2265 229.094 10.2845C226.247 10.268 223.935 7.98895 223.873 5.14226ZM224.963 15.5801H233.287V55.3135H224.963V15.5801ZM241.401 35.4448C241.401 21.9696 249.273 14.6478 259.786 14.6478C270.224 14.6478 278.171 21.9696 278.171 35.366C278.171 49.2307 270.07 56.2417 259.786 56.2417C249.423 56.2459 241.401 49.2348 241.401 35.4448ZM269.834 35.5235C269.834 26.7224 265.55 21.0207 259.786 21.0207C254.022 21.0207 249.738 26.6436 249.738 35.3702C249.738 43.703 253.396 49.8729 259.786 49.8729C265.786 49.8564 269.834 43.7818 269.834 35.5235ZM287.051 1.54558H295.541V55.3135H287.051V1.54558ZM305.901 15.5801H313.069L313.848 20.0221C316.106 17.9171 320.859 14.6354 326.001 14.6354C332.155 14.6354 337.218 17.9834 337.218 27.0207V55.3011H328.885V27.3481C328.885 23.0635 326.312 21.2735 323.196 21.2735C320.08 21.2735 316.264 23.5318 314.238 25.2431V55.3177H305.901V15.5801ZM346.177 15.5801H353.345L354.124 20.0221C356.383 17.9171 361.135 14.6354 366.278 14.6354C372.431 14.6354 377.494 17.9834 377.494 27.0207V55.3011H369.157V27.3481C369.157 23.0635 366.588 21.2735 363.472 21.2735C360.356 21.2735 356.54 23.5318 354.514 25.2431V55.3177H346.177V15.5801ZM384.659 35.4448C384.659 21.9696 392.532 14.6478 403.044 14.6478C413.486 14.6478 421.434 21.9696 421.434 35.366C421.434 49.2307 413.329 56.2417 403.044 56.2417C392.685 56.2459 384.659 49.2348 384.659 35.4448ZM413.097 35.5235C413.097 26.7224 408.812 21.0207 403.044 21.0207C397.276 21.0207 392.996 26.6312 392.996 35.3577C392.996 43.6906 396.659 49.8605 403.044 49.8605C409.044 49.8564 413.097 43.7818 413.097 35.5235ZM424.003 15.5801H432.493L442.699 46.1188H442.778L452.901 15.5801H461.159L446.979 55.3135H438.174L424.003 15.5801ZM463.674 45.2611C463.674 38.1713 466.869 34.355 476.519 33.2652L485.399 32.25V28.355C485.399 23.4489 481.819 21.0331 477.688 21.0331C475.04 21.0331 471.472 22.2017 469.276 23.6064H466.376V16.9061C470.61 15.4392 475.057 14.6768 479.54 14.6478C488.814 14.6478 493.72 19.3218 493.72 28.355V55.3135H486.091L485.776 51.7293C483.597 53.8301 479.233 56.2459 474.717 56.2459C469.028 56.2459 463.674 52.6616 463.674 45.2611ZM485.407 47.1298V38.1713C483.804 37.9807 482.192 37.9061 480.58 37.9392C474.423 37.9392 471.543 40.1975 471.543 44.25C471.543 47.6768 473.801 50.0925 478.007 50.0925C480.559 50.0925 483.754 48.6878 485.387 47.1298H485.407ZM504.883 43.8605V21.9613H500.287V16.7486C505.26 16.3591 506.677 13.6326 507.298 7.24309H513.22V15.5801H522.489V21.9613H513.22V43.384C513.22 47.4365 515.325 49.5994 518.051 49.5994C519.58 49.5373 521.084 49.1934 522.489 48.5884V54.5097C520.202 55.3798 517.773 55.8274 515.325 55.8315C509.536 55.8564 504.862 52.2721 504.862 43.8605H504.883ZM530.279 5.14226C530.341 2.30387 532.641 0.0290055 535.479 0C538.28 0.058011 540.526 2.34116 540.543 5.14226C540.526 7.94337 538.28 10.2265 535.479 10.2845C532.633 10.268 530.32 7.98895 530.258 5.14226H530.279ZM531.369 15.5801H539.706V55.3135H531.369V15.5801ZM547.79 35.4448C547.79 21.9696 555.663 14.6478 566.175 14.6478C576.613 14.6478 584.561 21.9696 584.561 35.366C584.561 49.2307 576.46 56.2417 566.175 56.2417C555.812 56.2459 547.79 49.2348 547.79 35.4448ZM576.224 35.5235C576.224 26.7224 571.939 21.0207 566.175 21.0207C560.412 21.0207 556.127 26.6312 556.127 35.3577C556.127 43.6906 559.79 49.8605 566.175 49.8605C572.171 49.8564 576.22 43.7818 576.22 35.5235H576.224ZM591.713 15.5801H598.877L599.656 20.0221C601.914 17.9171 606.667 14.6354 611.809 14.6354C617.963 14.6354 623.026 17.9834 623.026 27.0207V55.3011H614.693V27.3481C614.693 23.0635 612.12 21.2735 609.004 21.2735C605.888 21.2735 602.072 23.5318 600.046 25.2431V55.3177H591.713V15.5801ZM179.08 65.2624H187.57V119.014H179.08V65.2624ZM197.93 79.2845H205.11L205.889 83.7265C208.148 81.6215 212.901 78.3398 218.043 78.3398C224.196 78.3398 229.26 81.692 229.26 90.7293V119.006H220.91V91.0483C220.91 86.7638 218.341 84.9738 215.225 84.9738C212.109 84.9738 208.293 87.232 206.267 88.9434V119.014H197.93V79.2845ZM236.188 117.302V110.756H239.088C241.504 112.081 244.931 113.561 247.889 113.561C251.32 113.561 254.436 112.081 254.436 108.588C254.436 101.888 236.362 101.577 236.362 89.971C236.362 82.5704 243.53 78.3688 250.616 78.3688C254.76 78.3688 259.343 79.5373 261.448 80.7058V87.2528H258.547C256.521 86.0843 253.794 84.7666 250.836 84.7666C247.405 84.7666 244.525 86.3246 244.525 89.4406C244.525 96.2983 262.521 96.2196 262.521 107.983C262.521 115.773 255.199 120 247.873 120C243.891 119.95 238.127 118.624 236.188 117.302ZM271.711 107.565V85.674H267.108V80.453C272.08 80.0635 273.493 77.337 274.119 70.9475H280.04V79.2845H289.309V85.674H280.04V107.097C280.04 111.149 282.141 113.312 284.867 113.312C286.396 113.25 287.905 112.906 289.309 112.301V118.218C287.018 119.088 284.59 119.54 282.141 119.544C276.381 119.561 271.703 115.977 271.703 107.565H271.711ZM297.099 68.8467C297.162 66.0041 299.474 63.7251 302.316 63.7044C305.155 63.7044 307.459 66.0083 307.459 68.8467C307.459 71.6851 305.155 73.9889 302.316 73.9889C299.474 73.9682 297.162 71.6892 297.099 68.8467ZM298.189 79.2845H306.526V119.014H298.189V79.2845ZM319.533 107.565V85.674H314.938V80.453C319.91 80.0635 321.327 77.337 321.949 70.9475H327.87V79.2845H337.139V85.674H327.87V107.097C327.87 111.149 329.975 113.312 332.702 113.312C334.231 113.25 335.735 112.906 337.139 112.301V118.218C334.852 119.088 332.424 119.54 329.975 119.544C324.207 119.561 319.533 115.977 319.533 107.565ZM343.45 107.565V79.2845H351.796V107.25C351.796 111.46 354.365 113.329 357.402 113.329C360.597 113.329 364.413 110.913 366.439 109.276V79.2845H374.776V119.014H367.541L366.762 114.576C364.504 116.677 359.751 119.963 354.613 119.963C348.514 119.95 343.45 116.602 343.45 107.565ZM385.363 107.565V85.674H380.764V80.453C385.736 80.0635 387.153 77.337 387.775 70.9475H393.696V79.2845H402.97V85.674H393.696V107.097C393.696 111.149 395.801 113.312 398.528 113.312C400.057 113.25 401.565 112.906 402.97 112.301V118.218C400.678 119.088 398.25 119.54 395.801 119.544C390.037 119.561 385.359 115.977 385.359 107.565H385.363ZM406.786 99.0704C406.786 84.895 414.659 78.3522 423.845 78.3522C433.115 78.3522 439.268 85.1312 439.268 96.3481V100.869H415.119V101.337C415.119 108.796 419.561 113.565 426.414 113.565C429.845 113.565 433.272 112.086 435.609 110.76H438.568V117.307C434.296 118.981 429.754 119.876 425.167 119.954C413.018 119.95 406.786 112.55 406.786 99.0704ZM431.478 95.1008V94.0856C431.478 88.3218 427.972 84.7376 423.605 84.7376C419.088 84.7376 415.115 88.7901 415.115 94.6326V95.1008H431.478Z"
        fill="#00464B"/>
</svg>
